{
    "asset" : {
        "generator" : "Khronos glTF Blender I/O v1.7.33",
        "version" : "2.0"
    },
    "extensionsUsed" : [
        "KHR_lights_punctual"
    ],
    "extensionsRequired" : [
        "KHR_lights_punctual"
    ],
    "extensions" : {
        "KHR_lights_punctual" : {
            "lights" : [
                {
                    "color" : [
                        1,
                        1,
                        1
                    ],
                    "intensity" : 1000,
                    "type" : "point",
                    "name" : "Light"
                }
            ]
        }
    },
    "scene" : 0,
    "scenes" : [
        {
            "extras" : {
                "coat3D" : {},
                "paper_model" : {}
            },
            "name" : "Scene",
            "nodes" : [
                0,
                2,
                4,
                5,
                6,
                7,
                8,
                9,
                10
            ]
        }
    ],
    "nodes" : [
        {
            "mesh" : 0,
            "name" : "Cube",
            "translation" : [
                0,
                1,
                0
            ]
        },
        {
            "extensions" : {
                "KHR_lights_punctual" : {
                    "light" : 0
                }
            },
            "name" : "Light_Orientation",
            "rotation" : [
                -0.7071067690849304,
                0,
                0,
                0.7071067690849304
            ]
        },
        {
            "children" : [
                1
            ],
            "name" : "Light",
            "rotation" : [
                0.16907575726509094,
                0.7558803558349609,
                -0.27217137813568115,
                0.570947527885437
            ],
            "translation" : [
                4.076245307922363,
                5.903861999511719,
                -1.0054539442062378
            ]
        },
        {
            "camera" : 0,
            "name" : "Camera_Orientation",
            "rotation" : [
                -0.7071067690849304,
                0,
                0,
                0.7071067690849304
            ]
        },
        {
            "children" : [
                3
            ],
            "name" : "Camera",
            "rotation" : [
                0.4835361838340759,
                0.3368716239929199,
                -0.2087036669254303,
                0.7804827094078064
            ],
            "translation" : [
                7.152643203735352,
                5.691694736480713,
                6.612894058227539
            ]
        },
        {
            "mesh" : 1,
            "name" : "1",
            "rotation" : [
                -0.002080922946333885,
                0.7068740725517273,
                -0.7073332667350769,
                0.0020822747610509396
            ],
            "translation" : [
                0.02952885627746582,
                1.0095479488372803,
                -1.0229811668395996
            ]
        },
        {
            "mesh" : 2,
            "name" : "1.001",
            "rotation" : [
                -0.5018512606620789,
                -0.4979737102985382,
                0.49846646189689636,
                -0.5016958117485046
            ],
            "translation" : [
                1.0295288562774658,
                1.0095479488372803,
                -0.02298116683959961
            ]
        },
        {
            "mesh" : 3,
            "name" : "1.002",
            "rotation" : [
                -0.0026332109700888395,
                0,
                0,
                0.999996542930603
            ],
            "translation" : [
                0.02952885627746582,
                2.0095479488372803,
                -0.02298116683959961
            ]
        },
        {
            "mesh" : 3,
            "name" : "1.003",
            "rotation" : [
                -0.0026332109700888395,
                0,
                0,
                0.999996542930603
            ],
            "translation" : [
                0.02952885627746582,
                -0.01045205071568489,
                -0.02298116683959961
            ]
        },
        {
            "mesh" : 2,
            "name" : "1.004",
            "rotation" : [
                -0.5018512606620789,
                -0.4979737102985382,
                0.49846646189689636,
                -0.5016958117485046
            ],
            "translation" : [
                -1.0104711055755615,
                1.0095479488372803,
                -0.012981187552213669
            ]
        },
        {
            "mesh" : 1,
            "name" : "1.005",
            "rotation" : [
                -0.002080922946333885,
                0.7068740725517273,
                -0.7073332667350769,
                0.0020822747610509396
            ],
            "translation" : [
                0.02952885627746582,
                1.0095479488372803,
                1.0170187950134277
            ]
        }
    ],
    "cameras" : [
        {
            "name" : "Camera",
            "perspective" : {
                "aspectRatio" : 1.7777777777777777,
                "yfov" : 0.39959652046304894,
                "zfar" : 100,
                "znear" : 0.10000000149011612
            },
            "type" : "perspective"
        }
    ],
    "materials" : [
        {
            "doubleSided" : true,
            "name" : "Material",
            "pbrMetallicRoughness" : {
                "baseColorFactor" : [
                    0.800000011920929,
                    0.800000011920929,
                    0.800000011920929,
                    1
                ],
                "metallicFactor" : 0,
                "roughnessFactor" : 0.4000000059604645
            }
        },
        {
            "doubleSided" : true,
            "name" : "Material.003",
            "pbrMetallicRoughness" : {
                "baseColorTexture" : {
                    "index" : 0
                },
                "metallicFactor" : 0,
                "roughnessFactor" : 0.5
            }
        },
        {
            "doubleSided" : true,
            "name" : "Material.002",
            "pbrMetallicRoughness" : {
                "baseColorTexture" : {
                    "index" : 1
                },
                "metallicFactor" : 0,
                "roughnessFactor" : 0.5
            }
        },
        {
            "doubleSided" : true,
            "name" : "Material.001",
            "pbrMetallicRoughness" : {
                "baseColorTexture" : {
                    "index" : 2
                },
                "metallicFactor" : 0
            }
        }
    ],
    "meshes" : [
        {
            "name" : "Cube",
            "primitives" : [
                {
                    "attributes" : {
                        "POSITION" : 0,
                        "NORMAL" : 1,
                        "TANGENT" : 2,
                        "TEXCOORD_0" : 3
                    },
                    "indices" : 4,
                    "material" : 0
                }
            ]
        },
        {
            "name" : "Plane",
            "primitives" : [
                {
                    "attributes" : {
                        "POSITION" : 5,
                        "NORMAL" : 6,
                        "TANGENT" : 7,
                        "TEXCOORD_0" : 8
                    },
                    "indices" : 9,
                    "material" : 1
                }
            ]
        },
        {
            "name" : "Plane.001",
            "primitives" : [
                {
                    "attributes" : {
                        "POSITION" : 10,
                        "NORMAL" : 11,
                        "TANGENT" : 12,
                        "TEXCOORD_0" : 13
                    },
                    "indices" : 9,
                    "material" : 2
                }
            ]
        },
        {
            "name" : "Plane.002",
            "primitives" : [
                {
                    "attributes" : {
                        "POSITION" : 14,
                        "NORMAL" : 15,
                        "TANGENT" : 16,
                        "TEXCOORD_0" : 17
                    },
                    "indices" : 9,
                    "material" : 3
                }
            ]
        }
    ],
    "textures" : [
        {
            "sampler" : 0,
            "source" : 0
        },
        {
            "sampler" : 0,
            "source" : 1
        },
        {
            "sampler" : 0,
            "source" : 2
        }
    ],
    "images" : [
        {
            "bufferView" : 10,
            "mimeType" : "image/jpeg",
            "name" : "photoshop"
        },
        {
            "bufferView" : 15,
            "mimeType" : "image/jpeg",
            "name" : "Adobe-After-Effects"
        },
        {
            "bufferView" : 20,
            "mimeType" : "image/jpeg",
            "name" : "premiere"
        }
    ],
    "accessors" : [
        {
            "bufferView" : 0,
            "componentType" : 5126,
            "count" : 24,
            "max" : [
                1,
                1,
                1
            ],
            "min" : [
                -1,
                -1,
                -1
            ],
            "type" : "VEC3"
        },
        {
            "bufferView" : 1,
            "componentType" : 5126,
            "count" : 24,
            "type" : "VEC3"
        },
        {
            "bufferView" : 2,
            "componentType" : 5126,
            "count" : 24,
            "type" : "VEC4"
        },
        {
            "bufferView" : 3,
            "componentType" : 5126,
            "count" : 24,
            "type" : "VEC2"
        },
        {
            "bufferView" : 4,
            "componentType" : 5123,
            "count" : 36,
            "type" : "SCALAR"
        },
        {
            "bufferView" : 5,
            "componentType" : 5126,
            "count" : 4,
            "max" : [
                1,
                0,
                1
            ],
            "min" : [
                -1,
                0,
                -1
            ],
            "type" : "VEC3"
        },
        {
            "bufferView" : 6,
            "componentType" : 5126,
            "count" : 4,
            "type" : "VEC3"
        },
        {
            "bufferView" : 7,
            "componentType" : 5126,
            "count" : 4,
            "type" : "VEC4"
        },
        {
            "bufferView" : 8,
            "componentType" : 5126,
            "count" : 4,
            "type" : "VEC2"
        },
        {
            "bufferView" : 9,
            "componentType" : 5123,
            "count" : 6,
            "type" : "SCALAR"
        },
        {
            "bufferView" : 11,
            "componentType" : 5126,
            "count" : 4,
            "max" : [
                1,
                0,
                1
            ],
            "min" : [
                -1,
                0,
                -1
            ],
            "type" : "VEC3"
        },
        {
            "bufferView" : 12,
            "componentType" : 5126,
            "count" : 4,
            "type" : "VEC3"
        },
        {
            "bufferView" : 13,
            "componentType" : 5126,
            "count" : 4,
            "type" : "VEC4"
        },
        {
            "bufferView" : 14,
            "componentType" : 5126,
            "count" : 4,
            "type" : "VEC2"
        },
        {
            "bufferView" : 16,
            "componentType" : 5126,
            "count" : 4,
            "max" : [
                1.0079182386398315,
                -0.00015799165703356266,
                1.0379180908203125
            ],
            "min" : [
                -1.0079182386398315,
                -0.00015799258835613728,
                -0.9779188632965088
            ],
            "type" : "VEC3"
        },
        {
            "bufferView" : 17,
            "componentType" : 5126,
            "count" : 4,
            "type" : "VEC3"
        },
        {
            "bufferView" : 18,
            "componentType" : 5126,
            "count" : 4,
            "type" : "VEC4"
        },
        {
            "bufferView" : 19,
            "componentType" : 5126,
            "count" : 4,
            "type" : "VEC2"
        }
    ],
    "bufferViews" : [
        {
            "buffer" : 0,
            "byteLength" : 288,
            "byteOffset" : 0
        },
        {
            "buffer" : 0,
            "byteLength" : 288,
            "byteOffset" : 288
        },
        {
            "buffer" : 0,
            "byteLength" : 384,
            "byteOffset" : 576
        },
        {
            "buffer" : 0,
            "byteLength" : 192,
            "byteOffset" : 960
        },
        {
            "buffer" : 0,
            "byteLength" : 72,
            "byteOffset" : 1152
        },
        {
            "buffer" : 0,
            "byteLength" : 48,
            "byteOffset" : 1224
        },
        {
            "buffer" : 0,
            "byteLength" : 48,
            "byteOffset" : 1272
        },
        {
            "buffer" : 0,
            "byteLength" : 64,
            "byteOffset" : 1320
        },
        {
            "buffer" : 0,
            "byteLength" : 32,
            "byteOffset" : 1384
        },
        {
            "buffer" : 0,
            "byteLength" : 12,
            "byteOffset" : 1416
        },
        {
            "buffer" : 0,
            "byteLength" : 58371,
            "byteOffset" : 1428
        },
        {
            "buffer" : 0,
            "byteLength" : 48,
            "byteOffset" : 59800
        },
        {
            "buffer" : 0,
            "byteLength" : 48,
            "byteOffset" : 59848
        },
        {
            "buffer" : 0,
            "byteLength" : 64,
            "byteOffset" : 59896
        },
        {
            "buffer" : 0,
            "byteLength" : 32,
            "byteOffset" : 59960
        },
        {
            "buffer" : 0,
            "byteLength" : 13785,
            "byteOffset" : 59992
        },
        {
            "buffer" : 0,
            "byteLength" : 48,
            "byteOffset" : 73780
        },
        {
            "buffer" : 0,
            "byteLength" : 48,
            "byteOffset" : 73828
        },
        {
            "buffer" : 0,
            "byteLength" : 64,
            "byteOffset" : 73876
        },
        {
            "buffer" : 0,
            "byteLength" : 32,
            "byteOffset" : 73940
        },
        {
            "buffer" : 0,
            "byteLength" : 7430,
            "byteOffset" : 73972
        }
    ],
    "samplers" : [
        {
            "magFilter" : 9729,
            "minFilter" : 9987
        }
    ],
    "buffers" : [
        {
            "byteLength" : 81404,
            "uri" : "data:application/octet-stream;base64,"
        }
    ]
}
